<?xml version="1.0" encoding="UTF-8" standalone="no"?>
<svg
   version="1.1"
   id="Layer_1"
   x="0px"
   y="0px"
   width="456.98322"
   viewBox="250 130 456.98322 489.17032"
   enable-background="new 0 0 1024 1024"
   xml:space="preserve"
   sodipodi:docname="favicon.svg"
   height="489.17032"
   inkscape:version="1.4.2 (f4327f4, 2025-05-13)"
   xmlns:inkscape="http://www.inkscape.org/namespaces/inkscape"
   xmlns:sodipodi="http://sodipodi.sourceforge.net/DTD/sodipodi-0.dtd"
   xmlns="http://www.w3.org/2000/svg"
   xmlns:svg="http://www.w3.org/2000/svg"><sodipodi:namedview
   id="namedview1"
   pagecolor="#ffffff"
   bordercolor="#000000"
   borderopacity="0.25"
   inkscape:showpageshadow="2"
   inkscape:pageopacity="0.0"
   inkscape:pagecheckerboard="false"
   inkscape:deskcolor="#d1d1d1"
   inkscape:clip-to-page="false"
   inkscape:zoom="1.1164384"
   inkscape:cx="244.07975"
   inkscape:cy="141.96932"
   inkscape:window-width="1920"
   inkscape:window-height="1017"
   inkscape:window-x="-8"
   inkscape:window-y="-8"
   inkscape:window-maximized="1"
   inkscape:current-layer="Layer_1" /><defs
   id="defs7" />



<path
   fill="#dbe8f7"
   opacity="1"
   stroke="none"
   d="m 437.14446,619.17032 c -8.33271,-8.6e-4 -16.16538,-0.008 -23.99808,-0.002 -21.28125,0.0167 -36.14002,-10.83924 -46.72736,-28.25898 -5.51977,-9.08184 -8.58273,-19.02862 -7.70202,-29.98315 0.46591,-5.79559 -0.0751,-11.66547 0.15069,-17.48962 0.14279,-3.68219 -1.13919,-5.01416 -4.88009,-4.91846 -13.65323,0.34943 -27.31321,0.42523 -40.96964,0.66223 -15.42923,0.26776 -29.18713,-4.35748 -41.16589,-14.07849 -14.70508,-11.93353 -21.4877,-27.76471 -21.58069,-46.36774 -0.24072,-48.16162 -0.39554,-96.32605 -0.13919,-144.48694 0.14929,-28.04827 18.29938,-51.95355 44.16409,-59.41357 4.6427,-1.33902 9.43848,-1.93356 14.29019,-1.93341 14.99854,5.2e-4 29.99799,-0.0966 44.99494,0.0559 3.81152,0.0387 5.29648,-1.08533 5.33423,-5.09986 0.0546,-5.80606 -0.9148,-10.96124 -4.01227,-16.11682 -7.38306,-12.28872 -7.94297,-25.91284 -5.92508,-39.68405 4.05682,-27.68576 26.1098,-51.89743 53.58267,-57.28583 13.04962,-2.55948 26.62418,-2.00515 39.4411,2.54154 4.94885,1.75558 7.51846,0.81497 10.81769,-3.24683 12.62665,-15.54516 28.91983,-24.50561 49.31995,-24.01489 12.18579,0.29315 23.72412,4.19293 33.87298,10.79965 4.95941,3.22846 8.43109,2.40296 12.47931,-0.41318 11.24872,-7.82507 23.97669,-10.46374 37.37384,-10.4356 25.23084,0.053 43.81213,11.81704 56.75916,32.98336 1.42126,2.32352 2.90075,2.06031 4.90088,1.9776 21.17901,-0.87579 39.11688,11.90531 44.93432,32.36869 2.07556,7.30105 1.77777,14.88757 -0.28345,22.1791 -0.96099,3.3993 -0.40612,5.82737 2.06177,8.04206 17.88501,16.0505 17.41852,51.64715 -4.40118,68.21246 -6.51862,4.94891 -7.4278,9.82245 -7.41834,16.71457 0.11219,81.65979 0.26148,163.32056 -0.0569,244.97931 -0.0809,20.75549 -7.54187,38.81659 -24.82038,51.55731 -8.64526,6.37488 -18.57507,9.58582 -29.43347,9.57977 -13.83215,-0.008 -27.66443,-0.0177 -41.49646,0.0294 -49.65576,0.16919 -99.31155,0.362 -149.46734,0.54615 m 224.743,-130.43401 c -0.0283,-57.32111 -0.0572,-114.64221 -0.0845,-171.96332 -0.004,-8.96799 -0.0147,-8.86233 -8.97351,-10.00146 -3.76935,-0.47922 -5.42425,0.34527 -5.45373,4.5917 -0.10639,15.31977 -0.48047,30.63944 -0.91779,45.95444 -0.22137,7.75079 -2.77514,14.94879 -8.21606,20.39093 -9.93299,9.93518 -22.35956,11.56879 -35.22846,7.67798 -12.24939,-3.70349 -18.38678,-13.2301 -20.2127,-25.51734 -1.84455,-12.41241 -0.73932,-24.94708 -0.935,-37.42559 -0.0645,-4.11441 -1.2284,-5.94846 -5.73432,-6.00129 -63.75702,-1.75616 -127.58504,0.71427 -191.35833,1.99693 -5.15018,-0.11267 -6.39661,1.44895 -6.38669,6.46701 0.15484,78.3165 0.10132,156.63352 0.11947,234.95035 0.002,8.93622 2.87299,17.01617 7.98356,24.25146 8.0418,11.38514 19.53164,15.21595 33.00009,15.18921 56.15463,-0.11163 112.30963,-0.0633 168.46447,-0.0416 3.15809,10e-4 6.32282,0.50476 9.47284,0.40552 11.60431,-0.36567 23.2522,0.33093 34.79035,-1.70758 13.19391,-2.33106 30.7832,-17.85712 29.94714,-35.74726 -1.12665,-24.10821 -0.27575,-48.30896 -0.27679,-73.47009 M 628.52989,181.32516 c -5.64135,-17.45434 -18.00396,-27.40594 -35.67834,-30.23291 -15.86749,-2.53796 -30.58948,0.38199 -41.84778,13.22397 -6.70135,7.64407 -11.71814,7.98163 -18.40454,0.29861 -9.82062,-11.28436 -22.26221,-15.65884 -36.66919,-13.89926 -12.69153,1.55005 -22.77203,8.00998 -29.45483,19.18375 -1.07523,1.79779 -2.10047,3.50641 -0.1958,5.84763 3.57827,4.39852 2.84365,9.78097 -1.27646,13.20629 -3.83759,3.1904 -7.13633,2.6828 -11.76352,-1.8099 -17.33884,-16.8349 -42.20911,-18.99927 -62.16281,-5.43573 -20.82288,14.15433 -28.07346,38.65198 -18.70838,58.95636 2.06839,4.48446 4.94487,36.977 10.24095,36.96156 45.81662,-0.13382 88.71012,-2.3296 134.52352,-1.71125 15.55675,0.20997 20.28153,2.55322 28.75613,8.49612 10.2738,8.48166 22.10919,12.07727 35.04785,12.36908 5.7237,0.12906 10.41498,2.23404 13.37702,6.52096 4.99853,7.23426 7.86377,15.60291 6.74389,24.49835 -1.1817,9.38648 -0.0544,18.62085 0.58045,27.88923 0.40198,5.86944 5.9649,11.69207 10.81451,12.30804 7.03296,0.89331 10.89429,-1.69983 13.97736,-9.26837 0.89203,-2.18982 1.42114,-4.3924 1.44024,-6.77673 0.0856,-10.66205 0.10431,-21.32801 0.43818,-31.98343 0.21386,-6.82358 0.78088,-13.62262 -0.003,-20.45096 -0.40472,-3.52481 -1.53741,-6.28967 -4.94281,-8.05841 -3.00915,-1.5629 -4.37341,-4.44919 -4.54669,-7.8476 -0.19104,-3.74786 -0.46106,-7.88577 3.98663,-9.20248 4.24005,-1.25519 7.90491,-0.71955 11.33667,3.54416 7.48133,9.29513 17.57819,12.74588 29.44068,9.89062 22.19921,-5.34323 28.00109,-32.23279 17.24023,-44.62152 -2.91089,-3.3512 -6.53802,-5.61987 -10.01398,-8.18094 -5.5,-4.0524 -6.08886,-9.3349 -1.54089,-14.46829 1.95319,-2.20462 3.05994,-4.66992 3.66724,-7.50815 3.42462,-16.00497 -11.68665,-31.20358 -27.76209,-27.91208 -2.60559,0.53351 -5.26398,1.23023 -7.88281,1.17173 -3.34009,-0.0746 -7.27673,0.35421 -8.75739,-4.99845 M 292.00466,514.91153 c 6.64633,4.7865 14.52767,4.88379 22.05059,4.79089 13.47718,-0.16638 26.95295,-0.9798 40.44229,-0.75647 3.26227,0.054 4.40311,-1.21149 4.3461,-4.42352 -0.14181,-7.99396 -0.24035,-15.99939 0.0462,-23.98572 0.14758,-4.11469 -1.48535,-5.05121 -5.26273,-5.07056 -12.14996,-0.062 -24.31827,0.61951 -36.44787,-0.7528 -10.0589,-1.138 -14.32383,-5.51416 -15.44098,-15.62409 -1.12268,-10.15961 -0.0557,-20.29333 -0.0285,-30.43909 0.082,-30.65307 0.0692,-61.30651 0.0942,-91.95977 0.0115,-14.13666 6.58051,-20.67948 20.866,-20.73352 10.49527,-0.0397 20.99176,-0.1204 31.48556,10e-4 3.43097,0.0398 4.76245,-1.18118 4.69236,-4.6629 -0.16092,-7.99323 -0.20383,-15.99655 0.0272,-23.98651 0.11084,-3.83432 -1.41895,-4.8277 -5.00061,-4.78946 -13.82572,0.14764 -27.654,0.048 -41.4813,0.0572 -22.70099,0.0151 -41.54394,17.62994 -41.75836,40.45898 -0.44748,47.64032 -0.1896,95.28729 -0.21439,142.93152 -0.009,16.65161 7.15482,29.40656 21.58436,38.9444 m 66.79355,-156.15974 c 3.3e-4,-2.99597 -0.10462,-5.99664 0.0311,-8.98651 0.13163,-2.89929 -0.863,-4.26685 -3.98092,-4.23145 -9.81876,0.11139 -19.64026,0.10541 -29.45917,10e-4 -3.15094,-0.0334 -3.9418,1.45179 -3.93814,4.29438 0.0478,37.28277 0.0607,74.56573 -0.0214,111.84839 -0.007,3.34277 1.30706,4.32251 4.44845,4.27649 8.81949,-0.1294 17.65268,-0.30481 26.45938,0.0546 4.96631,0.20258 6.60666,-1.22998 6.57254,-6.39893 -0.21954,-33.2868 -0.11236,-66.57586 -0.11181,-100.85815 z"
   id="path1"
   sodipodi:nodetypes="ccssscssssssssssssssssssssscsssscscccssssssssssssccsssccssssscsssscsssssssscsssssssssssssccsssscsscsscssssscccscccccsccc" /></svg>
