<svg version="1.1" id="Layer_1" xmlns="http://www.w3.org/2000/svg" xmlns:xlink="http://www.w3.org/1999/xlink" x="0px" y="0px"
	 width="100%" viewBox="250 150 600 750" enable-background="new 0 0 1024 1024" xml:space="preserve">
<path fill="#dbe8f7" opacity="1.000000" stroke="none" 
	d="
M442.000000,798.934692 
	C433.667297,798.933838 425.834625,798.926880 418.001923,798.932983 
	C396.720673,798.949646 381.861908,788.093750 371.274567,770.674011 
	C365.754791,761.592163 362.691833,751.645386 363.572540,740.690857 
	C364.038452,734.895264 363.497437,729.025391 363.723236,723.201233 
	C363.866028,719.519043 362.584045,718.187073 358.843140,718.282776 
	C345.189911,718.632202 331.529938,718.708008 317.873505,718.945007 
	C302.444275,719.212769 288.686371,714.587524 276.707611,704.866516 
	C262.002533,692.932983 255.219910,677.101807 255.126923,658.498779 
	C254.886200,610.337158 254.731384,562.172729 254.987732,514.011841 
	C255.137024,485.963562 273.287109,462.058289 299.151825,454.598267 
	C303.794525,453.259247 308.590302,452.664703 313.442017,452.664856 
	C328.440552,452.665375 343.440002,452.568268 358.436951,452.720764 
	C362.248474,452.759491 363.733429,451.635437 363.771179,447.620911 
	C363.825806,441.814850 362.856384,436.659668 359.758911,431.504089 
	C352.375854,419.215363 351.815948,405.591248 353.833832,391.820038 
	C357.890656,364.134277 379.943634,339.922607 407.416504,334.534210 
	C420.466125,331.974731 434.040680,332.529053 446.857605,337.075745 
	C451.806458,338.831329 454.376068,337.890717 457.675293,333.828918 
	C470.301941,318.283752 486.595123,309.323303 506.995239,309.814026 
	C519.181030,310.107178 530.719360,314.006958 540.868225,320.613678 
	C545.827637,323.842133 549.299316,323.016632 553.347534,320.200500 
	C564.596252,312.375427 577.324219,309.736755 590.721375,309.764893 
	C615.952209,309.817902 634.533508,321.581940 647.480530,342.748260 
	C648.901794,345.071777 650.381287,344.808563 652.381409,344.725861 
	C673.560425,343.850067 691.498291,356.631165 697.315735,377.094543 
	C699.391296,384.395599 699.093506,391.982117 697.032288,399.273651 
	C696.071289,402.672943 696.626160,405.101013 699.094055,407.315704 
	C716.979065,423.366211 716.512573,458.962860 694.692871,475.528168 
	C688.174255,480.477081 687.265076,485.350616 687.274536,492.242737 
	C687.386719,573.902527 687.536011,655.563293 687.217651,737.222046 
	C687.136719,757.977539 679.675781,776.038635 662.397278,788.779358 
	C653.752014,795.154236 643.822205,798.365173 632.963806,798.359131 
	C619.131653,798.351440 605.299377,798.341431 591.467346,798.388550 
	C541.811584,798.557739 492.155792,798.750549 442.000000,798.934692 
M666.742981,668.500366 
	C666.714661,611.179260 666.685791,553.858154 666.658447,496.537048 
	C666.654175,487.569061 666.643738,487.674713 657.684937,486.535583 
	C653.915588,486.056366 652.260681,486.880859 652.231201,491.127289 
	C652.124817,506.447052 651.750732,521.766724 651.313416,537.081726 
	C651.092041,544.832520 648.538269,552.030518 643.097351,557.472656 
	C633.164368,567.407837 620.737793,569.041443 607.868896,565.150635 
	C595.619507,561.447144 589.482117,551.920532 587.656189,539.633301 
	C585.811646,527.220886 586.916870,514.686218 586.721191,502.207703 
	C586.656677,498.093292 585.492798,496.259247 580.986877,496.206421 
	C568.002014,496.054199 555.023438,495.415161 542.040100,495.050293 
	C536.702576,494.900269 531.462524,495.391052 526.241577,496.869934 
	C519.513367,498.775757 512.687744,499.673462 505.544708,498.629639 
	C498.906677,497.659637 492.580872,495.715088 486.172394,493.994324 
	C478.443176,491.918915 470.863556,491.514832 463.136658,494.247986 
	C454.267670,497.385193 444.979065,498.264496 435.616058,498.289551 
	C420.286072,498.330536 404.951050,498.538544 389.628540,498.203308 
	C384.478363,498.090637 383.231934,499.652252 383.241852,504.670319 
	C383.396698,582.986816 383.343170,661.303833 383.361328,739.620667 
	C383.363403,748.556885 386.234314,756.636841 391.344879,763.872131 
	C399.386688,775.257263 410.876526,779.088074 424.344971,779.061340 
	C480.499603,778.949707 536.654602,778.998047 592.809448,779.019775 
	C595.967529,779.020996 599.132263,779.524536 602.282288,779.425293 
	C613.886597,779.059631 625.534485,779.756226 637.072632,777.717712 
	C650.266541,775.386658 667.855835,759.860596 667.019775,741.970459 
	C665.893127,717.862244 666.744019,693.661499 666.742981,668.500366 
M633.385437,361.089539 
	C627.744080,343.635193 615.381470,333.683594 597.707092,330.856628 
	C581.839600,328.318665 567.117615,331.238617 555.859314,344.080597 
	C549.157959,351.724670 544.141174,352.062225 537.454773,344.379211 
	C527.634155,333.094849 515.192566,328.720367 500.785583,330.479950 
	C488.094055,332.029999 478.013550,338.489929 471.330750,349.663696 
	C470.255524,351.461487 469.230286,353.170105 471.134949,355.511322 
	C474.713226,359.909851 473.978607,365.292297 469.858490,368.717621 
	C466.020905,371.908020 462.722168,371.400421 458.094971,366.907715 
	C440.756134,350.072815 415.885864,347.908447 395.932159,361.471985 
	C375.109283,375.626312 367.858704,400.123962 377.223785,420.428345 
	C379.292175,424.912811 381.517944,426.821899 386.814026,426.806458 
	C432.630646,426.672638 478.448395,426.905243 524.265747,427.047333 
	C533.807678,427.076935 534.939209,428.307220 536.400940,437.623779 
	C538.043518,448.093079 542.240173,457.153992 550.744385,464.174774 
	C561.018188,472.656433 572.853577,476.252045 585.792236,476.543854 
	C591.515930,476.672913 596.207214,478.777893 599.169250,483.064819 
	C604.167786,490.299072 607.033020,498.667725 605.913147,507.563171 
	C604.731445,516.949646 605.858765,526.184021 606.493591,535.452393 
	C606.895569,541.321838 612.458496,547.144470 617.308105,547.760437 
	C624.341064,548.653748 628.202393,546.060608 631.285461,538.492065 
	C632.177490,536.302246 632.706604,534.099670 632.725708,531.715332 
	C632.811340,521.053284 632.830017,510.387329 633.163879,499.731903 
	C633.377747,492.908325 633.944763,486.109283 633.160645,479.280945 
	C632.755920,475.756134 631.623230,472.991272 628.217834,471.222534 
	C625.208679,469.659637 623.844421,466.773346 623.671143,463.374939 
	C623.480103,459.627075 623.210083,455.489166 627.657776,454.172455 
	C631.897827,452.917267 635.562683,453.452911 638.994446,457.716614 
	C646.475769,467.011749 656.572632,470.462494 668.435120,467.607239 
	C690.634338,462.264008 696.436218,435.374451 685.675354,422.985718 
	C682.764465,419.634521 679.137329,417.365845 675.661377,414.804779 
	C670.161377,410.752380 669.572510,405.469879 674.120483,400.336487 
	C676.073669,398.131866 677.180420,395.666565 677.787720,392.828339 
	C681.212341,376.823364 666.101074,361.624756 650.025635,364.916260 
	C647.420044,365.449768 644.761658,366.146484 642.142822,366.087982 
	C638.802734,366.013336 634.866089,366.442200 633.385437,361.089539 
M296.860199,694.675903 
	C303.506531,699.462402 311.387878,699.559692 318.910797,699.466797 
	C332.387970,699.300415 345.863739,698.487000 359.353088,698.710327 
	C362.615356,698.764343 363.756195,697.498840 363.699188,694.286804 
	C363.557373,686.292847 363.458832,678.287415 363.745331,670.301086 
	C363.892914,666.186401 362.259979,665.249878 358.482605,665.230530 
	C346.332642,665.168518 334.164337,665.850037 322.034729,664.477722 
	C311.975830,663.339722 307.710907,658.963562 306.593750,648.853638 
	C305.471069,638.694031 306.538055,628.560303 306.565216,618.414551 
	C306.647217,587.761475 306.634369,557.108032 306.659424,526.454773 
	C306.670959,512.318115 313.239929,505.775299 327.525421,505.721252 
	C338.020691,505.681519 348.517181,505.600861 359.010986,505.722687 
	C362.441956,505.762512 363.773438,504.541504 363.703339,501.059784 
	C363.542419,493.066559 363.499512,485.063232 363.730499,477.073273 
	C363.841339,473.238953 362.311554,472.245575 358.729889,472.283813 
	C344.904175,472.431458 331.075897,472.331787 317.248596,472.341003 
	C294.547607,472.356110 275.704651,489.970947 275.490234,512.799988 
	C275.042755,560.440308 275.300629,608.087280 275.275848,655.731506 
	C275.267151,672.383118 282.430664,685.138062 296.860199,694.675903 
M524.675598,461.723083 
	C522.996582,458.100555 521.114380,454.555176 519.700073,450.832062 
	C518.470947,447.596405 516.690979,446.261261 513.049988,446.272095 
	C471.914581,446.394318 430.778503,446.394012 389.643097,446.268280 
	C385.377563,446.255249 384.147430,447.857117 384.263306,451.864532 
	C384.484711,459.519257 384.502472,467.189209 384.280273,474.843414 
	C384.172699,478.549530 385.431702,479.775879 389.136963,479.762939 
	C403.289490,479.713562 417.444092,479.856812 431.595612,480.077820 
	C441.645691,480.234772 451.448883,479.404510 461.035309,475.897797 
	C467.479614,473.540527 474.270844,473.376526 481.219269,474.300446 
	C488.900299,475.321838 496.090637,477.842499 503.339294,480.192566 
	C514.331360,483.756317 524.429810,480.422913 535.057129,477.251709 
	C531.696533,471.837097 527.213989,467.864227 524.675598,461.723083 
M363.653870,538.515747 
	C363.654205,535.519775 363.549255,532.519104 363.684967,529.529236 
	C363.816589,526.629944 362.821960,525.262390 359.704041,525.297791 
	C349.885284,525.409180 340.063782,525.403198 330.244873,525.299011 
	C327.093933,525.265625 326.303070,526.750793 326.306732,529.593384 
	C326.354553,566.876160 326.367462,604.159119 326.285309,641.441772 
	C326.277954,644.784546 327.592377,645.764282 330.733765,645.718262 
	C339.553253,645.588867 348.386444,645.413452 357.193146,645.772827 
	C362.159454,645.975403 363.799805,644.542847 363.765686,639.373901 
	C363.546143,606.087097 363.653320,572.798035 363.653870,538.515747 
z"/>
<path fill="#dbe8f7" opacity="1.000000" stroke="none" 
	d="
M726.461548,202.745026 
	C725.743713,207.429901 722.895691,209.552841 718.844849,209.667450 
	C703.213013,210.109695 687.575745,210.247971 671.942200,209.607712 
	C669.169128,209.494141 667.166626,208.358429 666.258179,205.618851 
	C665.079468,202.064056 665.210632,198.700470 667.939087,195.859375 
	C673.007202,190.581985 678.116211,185.343445 683.241699,180.121704 
	C688.803345,174.455704 694.250732,168.695526 699.716553,161.371979 
	C690.240967,161.371979 681.685242,161.409744 673.130005,161.359344 
	C666.931763,161.322830 664.783936,158.721085 665.610046,152.629593 
	C666.052368,149.367783 668.071838,147.570953 670.999573,146.828201 
	C673.073547,146.302032 675.275879,146.086105 677.422729,146.075012 
	C689.903992,146.010529 702.386169,145.990784 714.867126,146.084503 
	C718.699036,146.113266 722.794067,146.255463 724.965332,150.157196 
	C727.028137,153.864075 725.735168,160.536987 722.153931,163.963120 
	C713.497864,172.244202 705.097595,180.761475 697.089600,189.668198 
	C696.130798,190.734665 694.666748,191.424805 694.375366,194.160477 
	C702.274841,194.160477 710.043945,193.829941 717.769836,194.265518 
	C723.903076,194.611313 725.810425,196.847702 726.461548,202.745026 
z"/>
<path fill="#dbe8f7" opacity="1.000000" stroke="none" 
	d="
M588.051880,266.060028 
	C596.187317,258.259644 603.407837,250.099976 611.285034,241.365601 
	C602.240662,241.365601 593.968018,241.399292 585.695862,241.355499 
	C578.392517,241.316803 575.298035,236.574707 577.992004,229.697922 
	C578.902344,227.373978 580.714905,226.328857 583.042175,226.321106 
	C598.688232,226.269012 614.334961,226.224945 629.980347,226.332916 
	C632.736023,226.351929 635.539673,227.459961 636.044678,230.559662 
	C636.649231,234.270248 636.959412,237.879166 633.737427,241.194427 
	C623.487549,251.741135 613.562622,262.603729 603.862488,274.635284 
	C608.753723,274.635284 613.645020,274.632751 618.536255,274.636078 
	C622.532837,274.638794 626.532288,274.745941 630.525085,274.626343 
	C634.143982,274.517975 636.318848,275.828308 636.329407,279.709259 
	C636.340149,283.666473 637.152466,288.038788 631.672791,289.316376 
	C630.542480,289.579926 629.368530,289.789398 628.213745,289.794342 
	C613.894775,289.855347 599.575439,289.911255 585.256531,289.874115 
	C582.109314,289.865967 579.434509,288.902740 578.122070,285.516754 
	C576.623352,281.650055 576.440369,277.931000 579.274963,274.730194 
	C581.916443,271.747467 584.937134,269.100494 588.051880,266.060028 
z"/>
<path fill="#dbe8f7" opacity="1.000000" stroke="none" 
	d="
M416.757477,745.630859 
	C411.822723,742.346069 411.986389,737.669739 413.042175,733.291199 
	C414.004944,729.298340 417.920044,728.691284 421.488342,728.368713 
	C423.969818,728.144531 426.471344,728.054626 428.963959,728.053650 
	C493.747040,728.029297 558.530151,728.021790 623.313232,728.028687 
	C625.305237,728.028931 627.318542,728.063171 629.285339,728.340820 
	C635.797607,729.260315 637.607483,731.538879 637.519897,738.431824 
	C637.458801,743.237244 634.943848,745.746704 629.242798,746.479614 
	C626.939392,746.775757 624.601562,746.927307 622.278931,746.932251 
	C557.997559,747.069763 493.716064,747.166748 429.434723,747.325317 
	C425.240662,747.335632 421.140106,746.997742 416.757477,745.630859 
z"/>
<path fill="#dbe8f7" opacity="1.000000" stroke="none" 
	d="
M493.689972,570.506348 
	C499.993958,581.018372 498.881897,599.781006 486.244110,607.718079 
	C477.521057,613.196533 468.832184,614.179932 459.769318,610.358337 
	C449.720886,606.121155 443.421753,598.467712 442.716583,587.184814 
	C441.933167,574.650269 449.310669,562.850891 460.089203,559.064148 
	C471.863312,554.927490 487.119415,559.440491 493.689972,570.506348 
M459.000885,576.552551 
	C453.364655,584.507507 456.062195,593.968262 465.083893,597.887085 
	C469.603699,599.850403 476.644989,598.525146 479.990295,595.081482 
	C484.253723,590.692627 485.489136,584.553223 483.108795,579.584167 
	C478.383392,569.719727 469.560516,568.399841 459.000885,576.552551 
z"/>
<path fill="#dbe8f7" opacity="1.000000" stroke="none" 
	d="
M483.472839,662.434326 
	C482.280609,649.806030 495.293976,638.921448 508.331116,640.835693 
	C518.996521,642.401672 527.709106,652.034668 526.410645,664.300842 
	C525.295166,674.838379 516.906189,682.300720 505.167297,682.363342 
	C493.190247,682.427246 485.402954,675.396729 483.472839,662.434326 
M504.594666,653.443848 
	C503.250214,654.043640 501.796661,654.477356 500.582184,655.275024 
	C497.220337,657.483276 496.326080,660.832336 497.513824,664.419983 
	C498.641876,667.827454 501.312469,669.735535 505.087524,669.658752 
	C509.221008,669.574768 512.146790,667.446350 513.288696,663.644592 
	C514.381287,660.007202 512.316772,657.272766 509.313354,655.348633 
	C508.081573,654.559509 506.656525,654.072021 504.594666,653.443848 
z"/>
<path fill="#dbe8f7" opacity="1.000000" stroke="none" 
	d="
M557.348450,610.957764 
	C557.049683,620.726196 551.798035,625.662659 542.444702,625.415894 
	C533.109436,625.169495 528.480225,619.911438 528.616760,609.709351 
	C528.724487,601.658325 534.414978,596.660217 543.492676,596.643250 
	C552.357117,596.626770 557.216003,601.489319 557.348450,610.957764 
z"/>
</svg>